<?xml version="1.0" encoding="UTF-8" standalone="no"?>
<svg
   xmlns:dc="http://purl.org/dc/elements/1.1/"
   xmlns:cc="http://creativecommons.org/ns#"
   xmlns:rdf="http://www.w3.org/1999/02/22-rdf-syntax-ns#"
   xmlns:svg="http://www.w3.org/2000/svg"
   xmlns="http://www.w3.org/2000/svg"
   xmlns:xlink="http://www.w3.org/1999/xlink"
   xmlns:sodipodi="http://sodipodi.sourceforge.net/DTD/sodipodi-0.dtd"
   xmlns:inkscape="http://www.inkscape.org/namespaces/inkscape"
   class="dezmondfinney-logo injected-svg src-pages----index-module---logoSVG---rP9zZ"
   viewBox="0 0 2.1685348 3.1749825"
   preserveAspectRatio="xMinYMin meet"
   data-src="./logo.svg"
   version="1.1"
   id="svg855"
   sodipodi:docname="df-logo.svg"
   inkscape:version="0.92.3 (2405546, 2018-03-11)">
  <metadata
     id="metadata859">
    <rdf:RDF>
      <cc:Work
         rdf:about="">
        <dc:format>image/svg+xml</dc:format>
        <dc:type
           rdf:resource="http://purl.org/dc/dcmitype/StillImage" />
        <dc:title>df-logo</dc:title>
      </cc:Work>
    </rdf:RDF>
  </metadata>
  <sodipodi:namedview
     pagecolor="#ffffff"
     bordercolor="#666666"
     borderopacity="1"
     objecttolerance="10"
     gridtolerance="10"
     guidetolerance="10"
     inkscape:pageopacity="0"
     inkscape:pageshadow="2"
     inkscape:window-width="2560"
     inkscape:window-height="1411"
     id="namedview857"
     showgrid="false"
     fit-margin-top="0"
     fit-margin-left="0"
     fit-margin-right="0"
     fit-margin-bottom="0"
     inkscape:zoom="22.204839"
     inkscape:cx="-14.0926"
     inkscape:cy="11.452744"
     inkscape:window-x="-9"
     inkscape:window-y="-9"
     inkscape:window-maximized="1"
     inkscape:current-layer="svg855" />
  <title
     id="title838">df-logo</title>
  <desc
     id="desc840">Created using Figma</desc>
  <g
     id="Canvas"
     transform="matrix(0.01037577,0,0,0.01037577,5.5821643,4.3163203)">
    <g
       id="df-logo">
      <g
         id="group">
        <g
           id="path1">
          <use
             transform="matrix(3.58726,0,0,3.58726,-538,-416)"
             xlink:href="#path0_fill"
             id="use842"
             style="fill:#333333"
             x="0"
             y="0"
             width="100%"
             height="100%" />
        </g>
        <g
           id="path2">
          <use
             transform="matrix(3.58726,0,0,3.58726,-410.425,-248.064)"
             xlink:href="#path1_fill"
             id="use845"
             style="fill:#333333"
             x="0"
             y="0"
             width="100%"
             height="100%" />
        </g>
      </g>
    </g>
  </g>
  <defs
     id="defs853">
    <path
       id="path0_fill"
       d="M 34.5329,0.0309984 C 33.5234,-0.0218003 32.5064,-0.00570033 31.4912,0.0682393 23.3698,0.659765 15.8412,5.34811 11.7388,12.3671 7.63648,19.386 7.25758,28.2328 10.7405,35.5775 c 2.5681,5.4154 6.7503,9.3987 10.4407,13.1274 3.6748,3.713 7.0317,7.4278 8.5559,11.6378 1.3604,3.7576 1.2311,8.1156 -0.4572,11.6285 -1.6757,3.4867 -5.0453,6.2732 -8.7332,7.0944 -2.9017,0.646 -6.1364,0.1313 -8.6959,-1.378 -2.55951,-1.5092 -4.56982,-4.0881 -5.40226,-6.9361 -0.83245,-2.8479 -0.53332,-6.106 0.81174,-8.7516 1.34505,-2.6456 3.80182,-4.8164 6.59652,-5.8282 0.3688,-0.1333 0.7077,-0.3377 0.9974,-0.6017 0.2896,-0.2639 0.5243,-0.5822 0.6906,-0.9367 0.1664,-0.3544 0.2611,-0.7381 0.2789,-1.1291 0.0177,-0.391 -0.0419,-0.7817 -0.1754,-1.1497 -0.1336,-0.368 -0.3385,-0.7062 -0.603,-0.9952 -0.2645,-0.289 -0.5835,-0.5232 -0.9387,-0.6892 -0.3553,-0.1659 -0.7398,-0.2605 -1.1316,-0.2782 -0.3919,-0.0177 -0.7834,0.0418 -1.1522,0.175 -4.26713,1.5449 -7.82714,4.6936 -9.88083,8.733 -2.053687,4.0395 -2.502617,8.7698 -1.231604,13.1181 1.271014,4.3484 4.190774,8.0952 8.098754,10.3996 3.90798,2.3044 8.61348,3.044 13.04388,2.0575 5.6485,-1.2576 10.3498,-5.2049 12.8105,-10.325 C 37.1118,69.4561 37.2439,63.533 35.354,58.313 33.2822,52.5907 29.1884,48.3162 25.4265,44.5153 21.6801,40.73 18.0921,37.1569 16.1334,33.0265 13.5351,27.5472 13.8381,20.6012 16.8985,15.3649 19.959,10.1287 25.8711,6.44945 31.9297,6.00817 c 6.0587,-0.44129 12.4449,2.34779 16.2349,7.08513 3.79,4.7373 5.095,11.5659 3.3216,17.3635 -0.1306,0.3787 -0.1834,0.7796 -0.1551,1.1791 0.0282,0.3994 0.1368,0.789 0.3193,1.1456 0.1825,0.3566 0.4351,0.6728 0.7429,0.9298 0.3077,0.257 0.6642,0.4495 1.0481,0.5659 0.3839,0.1164 0.7874,0.1544 1.1864,0.1118 0.399,-0.0427 0.7853,-0.1651 1.1358,-0.3601 0.3505,-0.195 0.658,-0.4584 0.9041,-0.7746 0.2462,-0.3162 0.426,-0.6787 0.5287,-1.0658 C 59.5735,24.4171 57.9101,15.7193 52.8297,9.36916 48.3845,3.81281 41.5998,0.400592 34.5329,0.0309984 Z"
       inkscape:connector-curvature="0" />
    <path
       id="path1_fill"
       d="M 3.02824,2.9795e-4 C 2.6326,-0.00528535 2.23979,0.0676526 1.87264,0.21487 1.50549,0.362087 1.17132,0.580643 0.889564,0.857848 0.607803,1.13505 0.384067,1.46538 0.231354,1.82961 0.0786419,2.19385 8.91898e-6,2.58474 8.91898e-6,2.97957 8.91898e-6,3.3744 0.0786419,3.76529 0.231354,4.12953 0.384067,4.49377 0.607803,4.82409 0.889564,5.1013 1.17132,5.3785 1.50549,5.59706 1.87264,5.74427 2.23979,5.89149 2.6326,5.96443 3.02824,5.95885 H 11.3882 C 11.7839,5.96443 12.1767,5.89149 12.5438,5.74427 12.911,5.59706 13.2452,5.3785 13.5269,5.1013 13.8087,4.82409 14.0324,4.49377 14.1851,4.12953 14.3378,3.76529 14.4165,3.3744 14.4165,2.97957 14.4165,2.58474 14.3378,2.19385 14.1851,1.82961 14.0324,1.46538 13.8087,1.13505 13.5269,0.857848 13.2452,0.580643 12.911,0.362087 12.5438,0.21487 12.1767,0.0676526 11.7839,-0.00528535 11.3882,2.9795e-4 Z"
       inkscape:connector-curvature="0" />
  </defs>
</svg>
